<?xml version='1.0' encoding='UTF-8' standalone='no'?>
<!-- Created with Fritzing (https://fritzing.org/) -->
<svg xmlns="http://www.w3.org/2000/svg" baseProfile="tiny" height="2.90275in" version="1.2" viewBox="0 0 234.962 208.998" width="3.26336in" x="0in"  xmlns:svg="http://www.w3.org/2000/svg" y="0in">
 <g id="watermark" >
  <g >
   <g >
    <path d="M210.23,202.798c-0.604,0,-1.131,0.325,-1.422,0.809l-2.796,0l3.96,-4.071c0.146,-0.146,0.289,-0.322,0.428,-0.521c0.149,-0.222,0.228,-0.479,0.228,-0.768c0,-0.279,-0.097,-0.518,-0.287,-0.71c-0.19,-0.188,-0.444,-0.287,-0.754,-0.287l-4.636,0c-0.305,0,-0.555,0.06,-0.742,0.17c-0.219,0.13,-0.33,0.368,-0.33,0.707c0,0.329,0.111,0.562,0.33,0.692c0.188,0.111,0.438,0.168,0.742,0.168l3.148,0l-3.974,4.086c-0.146,0.147,-0.289,0.315,-0.425,0.504c-0.153,0.212,-0.23,0.472,-0.23,0.771c0,0.28,0.096,0.521,0.288,0.711c0.188,0.188,0.442,0.285,0.754,0.285l4.315,0c0.293,0.467,0.812,0.776,1.4,0.776c0.916,0,1.66,-0.744,1.66,-1.661C211.889,203.543,211.144,202.798,210.23,202.798zM210.23,205.061c-0.334,0,-0.604,-0.271,-0.604,-0.604c0,-0.333,0.27,-0.604,0.604,-0.604c0.332,0,0.604,0.271,0.604,0.604C210.833,204.792,210.562,205.061,210.23,205.061z" fill="#8C8C8C" />
    <path d="M193.287,192.756c-0.914,0,-1.659,0.745,-1.659,1.66c0,0.916,0.745,1.66,1.659,1.66s1.658,-0.744,1.658,-1.66C194.947,193.501,194.203,192.756,193.287,192.756zM193.288,195.019c-0.333,0,-0.604,-0.27,-0.604,-0.603s0.271,-0.603,0.604,-0.603c0.331,0,0.604,0.27,0.604,0.603S193.619,195.019,193.288,195.019z" fill="#8C8C8C" />
    <path d="M201.808,197.418c-0.193,-0.111,-0.439,-0.169,-0.732,-0.169l-1.465,0L199.611,194.727c0,-0.292,-0.057,-0.538,-0.166,-0.729C199.355,193.841,199.162,193.656,198.752,193.656c-0.34,0,-0.578,0.116,-0.709,0.342c-0.109,0.193,-0.167,0.438,-0.167,0.729l0,2.521l-0.481,0c-0.295,0,-0.539,0.06,-0.731,0.169c-0.228,0.129,-0.341,0.368,-0.341,0.708c0,0.412,0.185,0.603,0.341,0.692c0.192,0.111,0.438,0.168,0.731,0.168l0.481,0l0,4.362c0,0.277,0.026,0.533,0.081,0.768c0.056,0.246,0.154,0.464,0.298,0.645c0.146,0.186,0.345,0.332,0.595,0.436c0.241,0.098,0.555,0.146,0.93,0.146l0.896,0c0.292,0,0.539,-0.054,0.731,-0.166c0.154,-0.089,0.341,-0.281,0.341,-0.693c0,-0.338,-0.114,-0.578,-0.341,-0.709c-0.192,-0.109,-0.439,-0.168,-0.731,-0.168l-0.821,0c-0.138,0,-0.19,-0.019,-0.207,-0.024c-0.014,-0.034,-0.035,-0.103,-0.035,-0.231L199.613,198.986l1.465,0c0.295,0,0.541,-0.057,0.734,-0.168c0.152,-0.09,0.34,-0.28,0.34,-0.692C202.148,197.786,202.035,197.547,201.808,197.418z" fill="#8C8C8C" />
    <path d="M193.353,197.248l-1.191,0c-0.292,0,-0.538,0.059,-0.731,0.169c-0.226,0.129,-0.341,0.368,-0.341,0.708c0,0.412,0.188,0.604,0.341,0.691c0.193,0.113,0.439,0.168,0.731,0.168l0.544,0l0,5.362c0,0.293,0.057,0.539,0.167,0.73c0.131,0.227,0.367,0.341,0.708,0.341c0.411,0,0.604,-0.187,0.692,-0.341c0.111,-0.191,0.168,-0.438,0.168,-0.73L194.441,198.336c0,-0.386,-0.084,-0.656,-0.256,-0.83C194.01,197.334,193.74,197.248,193.353,197.248z" fill="#8C8C8C" />
    <path d="M189.518,197.418c-0.193,-0.111,-0.44,-0.169,-0.732,-0.169l-0.604,0c-0.25,0,-0.498,0.063,-0.734,0.187c-0.226,0.119,-0.433,0.271,-0.616,0.453l-0.644,0.604l0,-0.247c0,-0.291,-0.055,-0.538,-0.168,-0.729c-0.128,-0.228,-0.368,-0.34,-0.707,-0.34c-0.41,0,-0.604,0.184,-0.693,0.34c-0.11,0.191,-0.167,0.438,-0.167,0.729l0,4.801c-0.475,0.293,-0.791,0.816,-0.791,1.412c0,0.917,0.745,1.661,1.658,1.661c0.916,0,1.66,-0.744,1.66,-1.661c0,-0.596,-0.317,-1.119,-0.792,-1.412l0,-2.21l1.738,-1.564c0.1,-0.09,0.199,-0.164,0.297,-0.217c0.084,-0.045,0.174,-0.067,0.274,-0.067l0.288,0c0.292,0,0.539,-0.056,0.732,-0.169c0.155,-0.088,0.339,-0.279,0.339,-0.691C189.858,197.786,189.743,197.547,189.518,197.418zM185.319,205.061c-0.332,0,-0.603,-0.271,-0.603,-0.604c0,-0.333,0.271,-0.604,0.603,-0.604c0.333,0,0.604,0.271,0.604,0.604C185.923,204.792,185.652,205.061,185.319,205.061z" fill="#8C8C8C" />
    <path d="M182.802,193.899c-0.193,-0.111,-0.44,-0.167,-0.731,-0.167l-0.59,0c-0.2,0,-0.389,0.004,-0.562,0.016c-0.176,0.009,-0.345,0.035,-0.506,0.07c-0.168,0.041,-0.336,0.109,-0.496,0.202c-0.158,0.093,-0.319,0.222,-0.48,0.382c-0.334,0.314,-0.554,0.656,-0.652,1.017c-0.094,0.348,-0.143,0.735,-0.143,1.151l0,0.678l-0.483,0c-0.292,0,-0.539,0.059,-0.73,0.169c-0.227,0.13,-0.342,0.369,-0.342,0.708c0,0.412,0.185,0.604,0.341,0.693c0.191,0.111,0.438,0.166,0.73,0.166l0.483,0l0,5.362c0,0.293,0.057,0.539,0.167,0.73c0.13,0.227,0.367,0.341,0.708,0.341c0.411,0,0.603,-0.187,0.692,-0.341c0.111,-0.191,0.168,-0.438,0.168,-0.73l0,-5.36l0.92,0c0.293,0,0.54,-0.057,0.732,-0.168c0.155,-0.09,0.34,-0.28,0.34,-0.692c0,-0.34,-0.114,-0.579,-0.34,-0.708c-0.189,-0.111,-0.436,-0.17,-0.729,-0.17l-0.92,0l0,-0.678c0,-0.218,0.019,-0.41,0.056,-0.571c0.032,-0.141,0.103,-0.261,0.218,-0.367l0.002,-0.004l0.002,-0.002c0.082,-0.082,0.176,-0.126,0.29,-0.136c0.15,-0.015,0.339,-0.022,0.564,-0.022l0.56,0c0.291,0,0.539,-0.058,0.731,-0.168c0.154,-0.088,0.339,-0.281,0.339,-0.693C183.142,194.268,183.027,194.029,182.802,193.899z" fill="#8C8C8C" />
    <path d="M234.795,197.516c-0.089,-0.156,-0.282,-0.34,-0.693,-0.34c-0.339,0,-0.578,0.113,-0.707,0.34c-0.078,0.133,-0.127,0.293,-0.152,0.477l-0.021,-0.021c-0.216,-0.236,-0.466,-0.42,-0.747,-0.539c-0.277,-0.119,-0.563,-0.183,-0.849,-0.183l-0.709,0c-0.249,0,-0.466,0.015,-0.64,0.041c-0.182,0.026,-0.352,0.074,-0.51,0.14c-0.158,0.066,-0.313,0.15,-0.459,0.254c-0.139,0.097,-0.303,0.226,-0.486,0.377c-0.188,0.156,-0.342,0.302,-0.463,0.434c-0.127,0.141,-0.23,0.293,-0.306,0.455c-0.069,0.16,-0.122,0.337,-0.147,0.523c-0.026,0.178,-0.041,0.391,-0.041,0.631l0,2.386c0,0.24,0.015,0.451,0.041,0.631c0.025,0.188,0.078,0.361,0.147,0.521c0.074,0.164,0.179,0.318,0.306,0.457c0.119,0.129,0.274,0.274,0.463,0.433c0.186,0.153,0.35,0.28,0.486,0.379c0.146,0.103,0.299,0.188,0.459,0.254c0.158,0.065,0.329,0.112,0.51,0.14c0.174,0.026,0.389,0.039,0.64,0.039l0.709,0c0.298,0,0.591,-0.066,0.87,-0.199c0.244,-0.114,0.492,-0.291,0.73,-0.523l0,1.434c0,0.18,-0.025,0.334,-0.072,0.465c-0.043,0.119,-0.159,0.258,-0.344,0.406c-0.154,0.127,-0.309,0.217,-0.457,0.264c-0.15,0.049,-0.341,0.074,-0.563,0.074l-2.203,0c-0.293,0,-0.538,0.055,-0.732,0.166c-0.152,0.088,-0.34,0.282,-0.34,0.692c0,0.341,0.115,0.579,0.34,0.71c0.194,0.109,0.439,0.167,0.732,0.167l2.326,0c0.247,0,0.463,-0.015,0.638,-0.041c0.179,-0.026,0.351,-0.073,0.513,-0.14c0.153,-0.064,0.31,-0.15,0.455,-0.254c0.143,-0.101,0.305,-0.227,0.487,-0.379c0.185,-0.153,0.343,-0.299,0.463,-0.431c0.128,-0.141,0.229,-0.294,0.304,-0.456c0.071,-0.162,0.123,-0.338,0.148,-0.523c0.025,-0.182,0.041,-0.393,0.041,-0.631l0,-7.898C234.962,197.954,234.908,197.707,234.795,197.516zM233.226,201.976c0,0.188,-0.062,0.35,-0.188,0.49c-0.15,0.172,-0.394,0.403,-0.716,0.686l-0.002,0.003l-0.002,0.004c-0.139,0.13,-0.291,0.237,-0.453,0.325c-0.148,0.082,-0.325,0.121,-0.526,0.121L231.038,203.605c-0.222,0,-0.41,-0.021,-0.563,-0.072c-0.148,-0.049,-0.301,-0.137,-0.453,-0.264c-0.231,-0.186,-0.315,-0.322,-0.346,-0.404c-0.049,-0.131,-0.072,-0.285,-0.072,-0.465l0,-2.206c0,-0.18,0.023,-0.336,0.072,-0.467c0.029,-0.082,0.113,-0.217,0.346,-0.403c0.152,-0.127,0.305,-0.216,0.453,-0.265c0.153,-0.049,0.342,-0.072,0.563,-0.072l0.301,0c0.212,0,0.388,0.037,0.526,0.113c0.152,0.082,0.308,0.191,0.457,0.324c0.322,0.293,0.564,0.529,0.716,0.7c0.128,0.146,0.188,0.304,0.188,0.492L233.226,201.976z" fill="#8C8C8C" />
    <path d="M214.816,192.756c-0.914,0,-1.66,0.745,-1.66,1.66c0,0.916,0.746,1.66,1.66,1.66s1.66,-0.744,1.66,-1.66C216.476,193.501,215.73,192.756,214.816,192.756zM214.816,195.019c-0.332,0,-0.604,-0.27,-0.604,-0.603s0.271,-0.603,0.604,-0.603s0.604,0.27,0.604,0.603C215.42,194.749,215.148,195.019,214.816,195.019z" fill="#8C8C8C" />
    <path d="M225.502,203.024l-0.107,-3.419c-0.011,-0.178,-0.021,-0.338,-0.031,-0.489c-0.01,-0.162,-0.037,-0.322,-0.082,-0.476c-0.045,-0.158,-0.11,-0.309,-0.198,-0.453c-0.093,-0.146,-0.216,-0.289,-0.37,-0.42c-0.225,-0.192,-0.443,-0.334,-0.646,-0.416c-0.207,-0.084,-0.461,-0.127,-0.754,-0.127l-1.012,0c-0.259,0,-0.501,0.058,-0.716,0.164c-0.197,0.098,-0.39,0.203,-0.572,0.315l-0.003,0.002l-0.003,0.003l-0.837,0.555l0,-0.041c0,-0.291,-0.057,-0.539,-0.168,-0.733c-0.129,-0.226,-0.367,-0.339,-0.707,-0.339c-0.411,0,-0.604,0.185,-0.693,0.339c-0.109,0.194,-0.168,0.438,-0.168,0.733l0,6.099c0,0.295,0.059,0.539,0.168,0.734c0.09,0.153,0.282,0.338,0.693,0.338c0.34,0,0.578,-0.114,0.707,-0.338c0.111,-0.195,0.168,-0.439,0.168,-0.734L220.171,200.286l1.953,-1.215c0.04,-0.024,0.082,-0.048,0.121,-0.063c0.031,-0.016,0.07,-0.025,0.115,-0.031c0.049,-0.012,0.117,-0.016,0.195,-0.016l0.362,0c0.188,0,0.334,0.021,0.435,0.059c0.082,0.029,0.143,0.076,0.18,0.143c0.05,0.078,0.08,0.18,0.098,0.303c0.02,0.139,0.034,0.309,0.045,0.504l0.096,3.097c-0.457,0.297,-0.762,0.811,-0.762,1.394c0,0.917,0.746,1.661,1.66,1.661c0.916,0,1.66,-0.744,1.66,-1.661C226.328,203.849,225.995,203.311,225.502,203.024zM224.668,205.061c-0.334,0,-0.602,-0.271,-0.602,-0.604c0,-0.333,0.268,-0.604,0.602,-0.604c0.333,0,0.604,0.271,0.604,0.604C225.273,204.792,225.001,205.061,224.668,205.061z" fill="#8C8C8C" />
    <path d="M214.879,197.248l-1.193,0c-0.293,0,-0.539,0.059,-0.731,0.169c-0.226,0.129,-0.341,0.368,-0.341,0.708c0,0.412,0.186,0.604,0.341,0.691c0.192,0.113,0.438,0.168,0.731,0.168l0.545,0l0,5.362c0,0.293,0.055,0.539,0.168,0.73c0.127,0.227,0.365,0.341,0.707,0.341c0.41,0,0.604,-0.187,0.691,-0.341c0.111,-0.191,0.17,-0.438,0.17,-0.73L215.967,198.336c0,-0.386,-0.085,-0.656,-0.259,-0.83C215.536,197.334,215.263,197.248,214.879,197.248z" fill="#8C8C8C" />
   </g>
  </g>
 </g>
 <g partID="58460">
  <g transform="translate(87.5993,26.4916)">
   <g id="schematic">
    <rect class="interior rect" fill="#FFFFFF" height="128.7" stroke="#000000" stroke-linecap="round" stroke-width="0.9" width="56.7" x="14.85" y="14.85"/>
    <line class="pin" fill="none" id="connector45pin" stroke="none" stroke-linecap="round" stroke-width="0" x1="71.6499" x2="86.0499" y1="28.8" y2="28.8"/>
    <g class="terminal" fill="none" height="0.699999" id="connector45terminal" stroke="none" stroke-width="0" width="0.699999" x="86.0499" y="28.4499"/>
    <line class="pin" fill="none" id="connector57pin" stroke="#787878" stroke-linecap="round" stroke-width="0.699999" x1="71.6499" x2="86.0499" y1="28.8" y2="28.8"/>
    <text class="text" fill="#8c8c8c" font-family="'Droid Sans'" font-size="3.49999" stroke="none" stroke-width="0" text-anchor="end" x="70.2499" y="29.4999">D13/SCK</text>
    <rect class="terminal" fill="none" height="0.699999" id="connector57terminal" stroke="none" stroke-width="0" width="0.699999" x="86.0499" y="28.4499"/>
    <line class="pin" fill="none" id="connector30pin" stroke="none" stroke-linecap="round" stroke-width="0" x1="71.6499" x2="86.0499" y1="36" y2="36"/>
    <g class="terminal" fill="none" height="0.699999" id="connector30terminal" stroke="none" stroke-width="0" width="0.699999" x="86.0499" y="35.6499"/>
    <line class="pin" fill="none" id="connector55pin" stroke="#787878" stroke-linecap="round" stroke-width="0.699999" x1="71.6499" x2="86.0499" y1="36" y2="36"/>
    <text class="text" fill="#8c8c8c" font-family="'Droid Sans'" font-size="3.49999" stroke="none" stroke-width="0" text-anchor="end" x="70.2499" y="36.6999">D12/MISO</text>
    <rect class="terminal" fill="none" height="0.699999" id="connector55terminal" stroke="none" stroke-width="0" width="0.699999" x="86.0499" y="35.6499"/>
    <line class="pin" fill="none" id="connector29pin" stroke="none" stroke-linecap="round" stroke-width="0" x1="71.6499" x2="86.0499" y1="43.2" y2="43.2"/>
    <g class="terminal" fill="none" height="0.699999" id="connector29terminal" stroke="none" stroke-width="0" width="0.699999" x="86.0499" y="42.8499"/>
    <line class="pin" fill="none" id="connector58pin" stroke="#787878" stroke-linecap="round" stroke-width="0.699999" x1="71.6499" x2="86.0499" y1="43.2" y2="43.2"/>
    <text class="text" fill="#8c8c8c" font-family="'Droid Sans'" font-size="3.49999" stroke="none" stroke-width="0" text-anchor="end" x="70.2499" y="43.8999">D11/MOSI</text>
    <rect class="terminal" fill="none" height="0.699999" id="connector58terminal" stroke="none" stroke-width="0" width="0.699999" x="86.0499" y="42.8499"/>
    <line class="pin" fill="none" id="connector28pin" stroke="#787878" stroke-linecap="round" stroke-width="0.699999" x1="71.6499" x2="86.0499" y1="50.4" y2="50.4"/>
    <text class="text" fill="#8c8c8c" font-family="'Droid Sans'" font-size="3.49999" stroke="none" stroke-width="0" text-anchor="end" x="70.2499" y="51.0999">D10</text>
    <g class="terminal" fill="none" height="0.699999" id="connector28terminal" stroke="none" stroke-width="0" width="0.699999" x="86.0499" y="50.0499"/>
    <line class="pin" fill="none" id="connector27pin" stroke="#787878" stroke-linecap="round" stroke-width="0.699999" x1="71.6499" x2="86.0499" y1="57.6" y2="57.6"/>
    <text class="text" fill="#8c8c8c" font-family="'Droid Sans'" font-size="3.49999" stroke="none" stroke-width="0" text-anchor="end" x="70.2499" y="58.2999">D9</text>
    <g class="terminal" fill="none" height="0.699999" id="connector27terminal" stroke="none" stroke-width="0" width="0.699999" x="86.0499" y="57.2499"/>
    <line class="pin" fill="none" id="connector26pin" stroke="#787878" stroke-linecap="round" stroke-width="0.699999" x1="71.6499" x2="86.0499" y1="64.8" y2="64.8"/>
    <text class="text" fill="#8c8c8c" font-family="'Droid Sans'" font-size="3.49999" stroke="none" stroke-width="0" text-anchor="end" x="70.2499" y="65.4999">D8</text>
    <g class="terminal" fill="none" height="0.699999" id="connector26terminal" stroke="none" stroke-width="0" width="0.699999" x="86.0499" y="64.4499"/>
    <line class="pin" fill="none" id="connector25pin" stroke="#787878" stroke-linecap="round" stroke-width="0.699999" x1="71.6499" x2="86.0499" y1="72" y2="72"/>
    <text class="text" fill="#8c8c8c" font-family="'Droid Sans'" font-size="3.49999" stroke="none" stroke-width="0" text-anchor="end" x="70.2499" y="72.6999">D7</text>
    <g class="terminal" fill="none" height="0.699999" id="connector25terminal" stroke="none" stroke-width="0" width="0.699999" x="86.0499" y="71.6499"/>
    <line class="pin" fill="none" id="connector24pin" stroke="#787878" stroke-linecap="round" stroke-width="0.699999" x1="71.6499" x2="86.0499" y1="79.2" y2="79.2"/>
    <text class="text" fill="#8c8c8c" font-family="'Droid Sans'" font-size="3.49999" stroke="none" stroke-width="0" text-anchor="end" x="70.2499" y="79.8999">D6</text>
    <g class="terminal" fill="none" height="0.699999" id="connector24terminal" stroke="none" stroke-width="0" width="0.699999" x="86.0499" y="78.8499"/>
    <line class="pin" fill="none" id="connector23pin" stroke="#787878" stroke-linecap="round" stroke-width="0.699999" x1="71.6499" x2="86.0499" y1="86.4" y2="86.4"/>
    <text class="text" fill="#8c8c8c" font-family="'Droid Sans'" font-size="3.49999" stroke="none" stroke-width="0" text-anchor="end" x="70.2499" y="87.0999">D5</text>
    <g class="terminal" fill="none" height="0.699999" id="connector23terminal" stroke="none" stroke-width="0" width="0.699999" x="86.0499" y="86.0499"/>
    <line class="pin" fill="none" id="connector22pin" stroke="#787878" stroke-linecap="round" stroke-width="0.699999" x1="71.6499" x2="86.0499" y1="93.6" y2="93.6"/>
    <text class="text" fill="#8c8c8c" font-family="'Droid Sans'" font-size="3.49999" stroke="none" stroke-width="0" text-anchor="end" x="70.2499" y="94.2999">D4</text>
    <g class="terminal" fill="none" height="0.699999" id="connector22terminal" stroke="none" stroke-width="0" width="0.699999" x="86.0499" y="93.2499"/>
    <line class="pin" fill="none" id="connector21pin" stroke="#787878" stroke-linecap="round" stroke-width="0.699999" x1="71.6499" x2="86.0499" y1="100.8" y2="100.8"/>
    <text class="text" fill="#8c8c8c" font-family="'Droid Sans'" font-size="3.49999" stroke="none" stroke-width="0" text-anchor="end" x="70.2499" y="101.5">D3</text>
    <g class="terminal" fill="none" height="0.699999" id="connector21terminal" stroke="none" stroke-width="0" width="0.699999" x="86.0499" y="100.45"/>
    <line class="pin" fill="none" id="connector20pin" stroke="#787878" stroke-linecap="round" stroke-width="0.699999" x1="71.6499" x2="86.0499" y1="108" y2="108"/>
    <text class="text" fill="#8c8c8c" font-family="'Droid Sans'" font-size="3.49999" stroke="none" stroke-width="0" text-anchor="end" x="70.2499" y="108.7">D2</text>
    <g class="terminal" fill="none" height="0.699999" id="connector20terminal" stroke="none" stroke-width="0" width="0.699999" x="86.0499" y="107.65"/>
    <line class="pin" fill="none" id="connector16pin" stroke="#787878" stroke-linecap="round" stroke-width="0.699999" x1="71.6499" x2="86.0499" y1="122.4" y2="122.4"/>
    <text class="text" fill="#8c8c8c" font-family="'Droid Sans'" font-size="3.49999" stroke="none" stroke-width="0" text-anchor="end" x="70.2499" y="123.1">D1/TX</text>
    <g class="terminal" fill="none" height="0.699999" id="connector16terminal" stroke="none" stroke-width="0" width="0.699999" x="86.0499" y="122.05"/>
    <line class="pin" fill="none" id="connector17pin" stroke="#787878" stroke-linecap="round" stroke-width="0.699999" x1="71.6499" x2="86.0499" y1="129.6" y2="129.6"/>
    <text class="text" fill="#8c8c8c" font-family="'Droid Sans'" font-size="3.49999" stroke="none" stroke-width="0" text-anchor="end" x="70.2499" y="130.3">D0/RX</text>
    <g class="terminal" fill="none" height="0.699999" id="connector17terminal" stroke="none" stroke-width="0" width="0.699999" x="86.0499" y="129.25"/>
    <line class="pin" fill="none" id="connector33pin" stroke="none" stroke-linecap="round" stroke-width="0" x1="0.349999" x2="14.75" y1="28.8" y2="28.8"/>
    <g class="terminal" fill="none" height="0.699999" id="connector33terminal" stroke="none" stroke-width="0" width="0.699999" x="-0.349999" y="28.4499"/>
    <line class="pin" fill="none" id="connector18pin" stroke="none" stroke-linecap="round" stroke-width="0" x1="0.349999" x2="14.75" y1="28.8" y2="28.8"/>
    <g class="terminal" fill="none" height="0.699999" id="connector18terminal" stroke="none" stroke-width="0" width="0.699999" x="-0.349999" y="28.4499"/>
    <line class="pin" fill="none" id="connector59pin" stroke="#787878" stroke-linecap="round" stroke-width="0.699999" x1="0.349999" x2="14.75" y1="28.8" y2="28.8"/>
    <text class="text" fill="#8c8c8c" font-family="'Droid Sans'" font-size="3.49999" stroke="none" stroke-width="0" text-anchor="start" x="16.15" y="29.4999">RESET</text>
    <rect class="terminal" fill="none" height="0.699999" id="connector59terminal" stroke="none" stroke-width="0" width="0.699999" x="-0.349999" y="28.4499"/>
    <line class="pin" fill="none" id="connector43pin" stroke="#787878" stroke-linecap="round" stroke-width="0.699999" x1="0.349999" x2="14.75" y1="36" y2="36"/>
    <text class="text" fill="#8c8c8c" font-family="'Droid Sans'" font-size="3.49999" stroke="none" stroke-width="0" text-anchor="start" x="16.15" y="36.6999">AREF</text>
    <g class="terminal" fill="none" height="0.699999" id="connector43terminal" stroke="none" stroke-width="0" width="0.699999" x="-0.349999" y="35.6499"/>
    <line class="pin" fill="none" id="connector42pin" stroke="#787878" stroke-linecap="round" stroke-width="0.699999" x1="0.349999" x2="14.75" y1="50.4" y2="50.4"/>
    <text class="text" fill="#8c8c8c" font-family="'Droid Sans'" font-size="3.49999" stroke="none" stroke-width="0" text-anchor="start" x="16.15" y="51.0999">A0</text>
    <g class="terminal" fill="none" height="0.699999" id="connector42terminal" stroke="none" stroke-width="0" width="0.699999" x="-0.349999" y="50.0499"/>
    <line class="pin" fill="none" id="connector41pin" stroke="#787878" stroke-linecap="round" stroke-width="0.699999" x1="0.349999" x2="14.75" y1="57.6" y2="57.6"/>
    <text class="text" fill="#8c8c8c" font-family="'Droid Sans'" font-size="3.49999" stroke="none" stroke-width="0" text-anchor="start" x="16.15" y="58.2999">A1</text>
    <g class="terminal" fill="none" height="0.699999" id="connector41terminal" stroke="none" stroke-width="0" width="0.699999" x="-0.349999" y="57.2499"/>
    <line class="pin" fill="none" id="connector40pin" stroke="#787878" stroke-linecap="round" stroke-width="0.699999" x1="0.349999" x2="14.75" y1="64.8" y2="64.8"/>
    <text class="text" fill="#8c8c8c" font-family="'Droid Sans'" font-size="3.49999" stroke="none" stroke-width="0" text-anchor="start" x="16.15" y="65.4999">A2</text>
    <g class="terminal" fill="none" height="0.699999" id="connector40terminal" stroke="none" stroke-width="0" width="0.699999" x="-0.349999" y="64.4499"/>
    <line class="pin" fill="none" id="connector39pin" stroke="#787878" stroke-linecap="round" stroke-width="0.699999" x1="0.349999" x2="14.75" y1="72" y2="72"/>
    <text class="text" fill="#8c8c8c" font-family="'Droid Sans'" font-size="3.49999" stroke="none" stroke-width="0" text-anchor="start" x="16.15" y="72.6999">A3</text>
    <g class="terminal" fill="none" height="0.699999" id="connector39terminal" stroke="none" stroke-width="0" width="0.699999" x="-0.349999" y="71.6499"/>
    <line class="pin" fill="none" id="connector38pin" stroke="#787878" stroke-linecap="round" stroke-width="0.699999" x1="0.349999" x2="14.75" y1="79.2" y2="79.2"/>
    <text class="text" fill="#8c8c8c" font-family="'Droid Sans'" font-size="3.49999" stroke="none" stroke-width="0" text-anchor="start" x="16.15" y="79.8999">A4</text>
    <g class="terminal" fill="none" height="0.699999" id="connector38terminal" stroke="none" stroke-width="0" width="0.699999" x="-0.349999" y="78.8499"/>
    <line class="pin" fill="none" id="connector37pin" stroke="#787878" stroke-linecap="round" stroke-width="0.699999" x1="0.349999" x2="14.75" y1="86.4" y2="86.4"/>
    <text class="text" fill="#8c8c8c" font-family="'Droid Sans'" font-size="3.49999" stroke="none" stroke-width="0" text-anchor="start" x="16.15" y="87.0999">A5</text>
    <g class="terminal" fill="none" height="0.699999" id="connector37terminal" stroke="none" stroke-width="0" width="0.699999" x="-0.349999" y="86.0499"/>
    <line class="pin" fill="none" id="connector36pin" stroke="#787878" stroke-linecap="round" stroke-width="0.699999" x1="0.349999" x2="14.75" y1="93.6" y2="93.6"/>
    <text class="text" fill="#8c8c8c" font-family="'Droid Sans'" font-size="3.49999" stroke="none" stroke-width="0" text-anchor="start" x="16.15" y="94.2999">A6</text>
    <g class="terminal" fill="none" height="0.699999" id="connector36terminal" stroke="none" stroke-width="0" width="0.699999" x="-0.349999" y="93.2499"/>
    <line class="pin" fill="none" id="connector35pin" stroke="#787878" stroke-linecap="round" stroke-width="0.699999" x1="0.349999" x2="14.75" y1="100.8" y2="100.8"/>
    <text class="text" fill="#8c8c8c" font-family="'Droid Sans'" font-size="3.49999" stroke="none" stroke-width="0" text-anchor="start" x="16.15" y="101.5">A7</text>
    <g class="terminal" fill="none" height="0.699999" id="connector35terminal" stroke="none" stroke-width="0" width="0.699999" x="-0.349999" y="100.45"/>
    <line class="pin" fill="none" id="connector19pin" stroke="none" stroke-linecap="round" stroke-width="0" x1="43.2" x2="43.2" y1="143.65" y2="158.05"/>
    <g class="terminal" fill="none" height="0.699999" id="connector19terminal" stroke="none" stroke-width="0" width="0.699999" x="42.8499" y="158.05"/>
    <line class="pin" fill="none" id="connector32pin" stroke="none" stroke-linecap="round" stroke-width="0" x1="43.2" x2="43.2" y1="143.65" y2="158.05"/>
    <g class="terminal" fill="none" height="0.699999" id="connector32terminal" stroke="none" stroke-width="0" width="0.699999" x="42.8499" y="158.05"/>
    <line class="pin" fill="none" id="connector60pin" stroke="#787878" stroke-linecap="round" stroke-width="0.699999" x1="43.2" x2="43.2" y1="143.65" y2="158.05"/>
    <g transform="matrix(1, 0, 0, 1, 43.8999, 142.25)">
     <g>
      <g transform="rotate(270)">
       <g>
        <text class="text" fill="#8c8c8c" font-family="'Droid Sans'" font-size="3.49999" stroke="none" stroke-width="0" text-anchor="start" x="0" y="0">GND</text>
       </g>
      </g>
     </g>
    </g>
    <rect class="terminal" fill="none" height="0.699999" id="connector60terminal" stroke="none" stroke-width="0" width="0.699999" x="42.8499" y="158.05"/>
    <line class="pin" fill="none" id="connector31pin" stroke="#787878" stroke-linecap="round" stroke-width="0.699999" x1="28.8" x2="28.8" y1="0.349999" y2="14.75"/>
    <g transform="matrix(1, 0, 0, 1, 29.4999, 16.15)">
     <g>
      <g transform="rotate(270)">
       <g>
        <text class="text" fill="#8c8c8c" font-family="'Droid Sans'" font-size="3.49999" stroke="none" stroke-width="0" text-anchor="end" x="0" y="0">VIN</text>
       </g>
      </g>
     </g>
    </g>
    <g class="terminal" fill="none" height="0.699999" id="connector31terminal" stroke="none" stroke-width="0" width="0.699999" x="28.4499" y="-0.349999"/>
    <line class="pin" fill="none" id="connector34pin" stroke="none" stroke-linecap="round" stroke-width="0" x1="43.2" x2="43.2" y1="0.349999" y2="14.75"/>
    <g class="terminal" fill="none" height="0.699999" id="connector34terminal" stroke="none" stroke-width="0" width="0.699999" x="42.8499" y="-0.349999"/>
    <line class="pin" fill="none" id="connector56pin" stroke="#787878" stroke-linecap="round" stroke-width="0.699999" x1="43.2" x2="43.2" y1="0.349999" y2="14.75"/>
    <g transform="matrix(1, 0, 0, 1, 43.8999, 16.15)">
     <g>
      <g transform="rotate(270)">
       <g>
        <text class="text" fill="#8c8c8c" font-family="'Droid Sans'" font-size="3.49999" stroke="none" stroke-width="0" text-anchor="end" x="0" y="0">5V</text>
       </g>
      </g>
     </g>
    </g>
    <rect class="terminal" fill="none" height="0.699999" id="connector56terminal" stroke="none" stroke-width="0" width="0.699999" x="42.8499" y="-0.349999"/>
    <line class="pin" fill="none" id="connector44pin" stroke="#787878" stroke-linecap="round" stroke-width="0.699999" x1="57.6" x2="57.6" y1="0.349999" y2="14.75"/>
    <g transform="matrix(1, 0, 0, 1, 58.2999, 16.15)">
     <g>
      <g transform="rotate(270)">
       <g>
        <text class="text" fill="#8c8c8c" font-family="'Droid Sans'" font-size="3.49999" stroke="none" stroke-width="0" text-anchor="end" x="0" y="0">3V3</text>
       </g>
      </g>
     </g>
    </g>
    <g class="terminal" fill="none" height="0.699999" id="connector44terminal" stroke="none" stroke-width="0" width="0.699999" x="57.2499" y="-0.349999"/>
    <text class="text" fill="#000000" font-family="'Droid Sans'" font-size="4.25001" id="label" stroke="none" stroke-width="0" text-anchor="middle" x="43.6499" y="72.8498">Arduino</text>
    <text class="text" fill="#000000" font-family="'Droid Sans'" font-size="4.25001" id="label" stroke="none" stroke-width="0" text-anchor="middle" x="43.6499" y="77.3833">Nano</text>
    <text class="text" fill="#000000" font-family="'Droid Sans'" font-size="4.25001" id="label" stroke="none" stroke-width="0" text-anchor="middle" x="43.6499" y="81.9167">(Rev3.0)</text>
   </g>
  </g>
 </g>
 <g partID="60430">
  <g transform="translate(66.2153,74.191)">
   <g transform="matrix(0,1,-1,0,0,0)">
    <g id="schematic">
     <g>
      <path d="M13.5,14.966L9.9,14.966c-0.193,0,-0.35,-0.156,-0.35,-0.35s0.156,-0.35,0.35,-0.35L13.5,14.266c0.193,0,0.35,0.156,0.35,0.35S13.694,14.966,13.5,14.966z"/>
     </g>
     <g>
      <path d="M9.9,14.966L6.3,14.966c-0.193,0,-0.35,-0.156,-0.35,-0.35s0.157,-0.35,0.35,-0.35l3.6,0c0.193,0,0.35,0.156,0.35,0.35S10.093,14.966,9.9,14.966z"/>
     </g>
     <g>
      <polygon fill="#FFFFFF" points="9.9,14.616,6.3,7.416,9.9,7.416,13.5,7.416"/>
      <path d="M9.9,15.398L5.734,7.066l8.333,0L9.9,15.398zM6.866,7.766L9.9,13.834l3.034,-6.068L6.866,7.766z"/>
     </g>
     <g>
      <path d="M9.9,14.841c-0.124,0,-0.225,-0.101,-0.225,-0.225l0,-7.2c0,-0.124,0.101,-0.225,0.225,-0.225s0.225,0.101,0.225,0.225l0,7.2C10.124,14.74,10.024,14.841,9.9,14.841z"/>
     </g>
     <g>
      <path d="M1.8,12.141c-0.058,0,-0.115,-0.021,-0.159,-0.065c-0.088,-0.088,-0.088,-0.23,0,-0.318l2.34,-2.341c0.088,-0.088,0.23,-0.088,0.318,0s0.088,0.23,0,0.318l-2.34,2.341C1.915,12.12,1.858,12.141,1.8,12.141z"/>
     </g>
     <g>
      <path d="M2.16,15.381c-0.058,0,-0.115,-0.021,-0.159,-0.065c-0.088,-0.088,-0.088,-0.23,0,-0.318l2.34,-2.34c0.088,-0.088,0.23,-0.088,0.318,0s0.088,0.23,0,0.318l-2.34,2.34C2.276,15.359,2.218,15.381,2.16,15.381z"/>
     </g>
     <g id="connector0pin">
      <path d="M9.9,22.166c-0.193,0,-0.35,-0.156,-0.35,-0.35l0,-7.2c0,-0.193,0.156,-0.35,0.35,-0.35s0.35,0.156,0.35,0.35l0,7.2C10.249,22.01,10.093,22.166,9.9,22.166z" fill="#787878"/>
     </g>
     <g id="connector0terminal">
      <rect fill="none" height="0.001" width="0.001" x="9.9" y="21.816"/>
     </g>
     <g transform="matrix(1, 0, 0, 1, 3.429, 6.4262)">
      <g>
       <g transform="rotate(270)">
        <g>
         <g enable-background="new    ">
          <path d="M-11.647,5.54l-0.891,0L-12.538,5.388l0.342,-0.372c0.049,-0.053,0.093,-0.101,0.131,-0.145s0.071,-0.086,0.099,-0.128c0.026,-0.042,0.047,-0.084,0.062,-0.125c0.015,-0.043,0.021,-0.088,0.021,-0.138c0,-0.038,-0.005,-0.072,-0.017,-0.102s-0.027,-0.054,-0.047,-0.075c-0.021,-0.02,-0.045,-0.035,-0.073,-0.046s-0.06,-0.016,-0.094,-0.016c-0.062,0,-0.118,0.013,-0.167,0.038c-0.051,0.024,-0.098,0.057,-0.143,0.096l-0.1,-0.116c0.025,-0.023,0.055,-0.046,0.084,-0.065c0.029,-0.021,0.063,-0.039,0.097,-0.054s0.071,-0.026,0.109,-0.036c0.038,-0.008,0.079,-0.013,0.121,-0.013c0.063,0,0.119,0.009,0.169,0.026c0.051,0.018,0.094,0.043,0.129,0.076c0.035,0.032,0.063,0.072,0.082,0.119c0.019,0.048,0.028,0.101,0.028,0.16c0,0.056,-0.009,0.108,-0.026,0.158c-0.017,0.05,-0.041,0.1,-0.07,0.148c-0.031,0.048,-0.066,0.097,-0.109,0.146c-0.041,0.049,-0.087,0.1,-0.136,0.152L-12.32,5.37l0,0.008l0.673,0L-11.647,5.54z" fill="#787878"/>
         </g>
        </g>
       </g>
      </g>
     </g>
     <g id="connector1pin">
      <path d="M9.9,7.766c-0.193,0,-0.35,-0.157,-0.35,-0.35l0,-7.2c0,-0.193,0.156,-0.35,0.35,-0.35s0.35,0.157,0.35,0.35l0,7.2C10.249,7.609,10.093,7.766,9.9,7.766z" fill="#787878"/>
     </g>
     <g id="connector1terminal">
      <polygon fill="none" points="9.9,0.216,9.901,0.216,9.901,0.216"/>
     </g>
     <g transform="matrix(1, 0, 0, 1, 3.429, 1.3462)">
      <g>
       <g transform="rotate(270)">
        <g>
         <g enable-background="new    ">
          <path d="M-2.616,5.54l-0.172,0L-2.788,4.648c0,-0.028,0,-0.058,0,-0.09s0.001,-0.063,0.002,-0.095c0.001,-0.032,0.002,-0.063,0.003,-0.092c0.001,-0.028,0.002,-0.054,0.002,-0.076c-0.011,0.012,-0.021,0.021,-0.029,0.03s-0.017,0.017,-0.026,0.024s-0.018,0.016,-0.028,0.025c-0.01,0.008,-0.021,0.019,-0.035,0.03l-0.145,0.118l-0.094,-0.12l0.374,-0.292l0.146,0L-2.618,5.54z" fill="#787878"/>
         </g>
        </g>
       </g>
      </g>
     </g>
     <g>
      <path d="M0.18,13.536l1.08,-2.521l1.44,1.438L0.18,13.536z"/>
     </g>
     <g>
      <path d="M0.54,16.776l1.08,-2.521l1.438,1.438L0.54,16.776z"/>
     </g>
    </g>
   </g>
  </g>
 </g>
 <g partID="60450">
  <g transform="translate(44.6153,81.391)">
   <g transform="matrix(0,1,-1,0,0,0)">
    <g id="schematic">
     <g>
      <path d="M13.5,14.966L9.9,14.966c-0.193,0,-0.35,-0.156,-0.35,-0.35s0.156,-0.35,0.35,-0.35L13.5,14.266c0.193,0,0.35,0.156,0.35,0.35S13.694,14.966,13.5,14.966z"/>
     </g>
     <g>
      <path d="M9.9,14.966L6.3,14.966c-0.193,0,-0.35,-0.156,-0.35,-0.35s0.157,-0.35,0.35,-0.35l3.6,0c0.193,0,0.35,0.156,0.35,0.35S10.093,14.966,9.9,14.966z"/>
     </g>
     <g>
      <polygon fill="#FFFFFF" points="9.9,14.616,6.3,7.416,9.9,7.416,13.5,7.416"/>
      <path d="M9.9,15.398L5.734,7.066l8.333,0L9.9,15.398zM6.866,7.766L9.9,13.834l3.034,-6.068L6.866,7.766z"/>
     </g>
     <g>
      <path d="M9.9,14.841c-0.124,0,-0.225,-0.101,-0.225,-0.225l0,-7.2c0,-0.124,0.101,-0.225,0.225,-0.225s0.225,0.101,0.225,0.225l0,7.2C10.124,14.74,10.024,14.841,9.9,14.841z"/>
     </g>
     <g>
      <path d="M1.8,12.141c-0.058,0,-0.115,-0.021,-0.159,-0.065c-0.088,-0.088,-0.088,-0.23,0,-0.318l2.34,-2.341c0.088,-0.088,0.23,-0.088,0.318,0s0.088,0.23,0,0.318l-2.34,2.341C1.915,12.12,1.858,12.141,1.8,12.141z"/>
     </g>
     <g>
      <path d="M2.16,15.381c-0.058,0,-0.115,-0.021,-0.159,-0.065c-0.088,-0.088,-0.088,-0.23,0,-0.318l2.34,-2.34c0.088,-0.088,0.23,-0.088,0.318,0s0.088,0.23,0,0.318l-2.34,2.34C2.276,15.359,2.218,15.381,2.16,15.381z"/>
     </g>
     <g id="connector0pin">
      <path d="M9.9,22.166c-0.193,0,-0.35,-0.156,-0.35,-0.35l0,-7.2c0,-0.193,0.156,-0.35,0.35,-0.35s0.35,0.156,0.35,0.35l0,7.2C10.249,22.01,10.093,22.166,9.9,22.166z" fill="#787878"/>
     </g>
     <g id="connector0terminal">
      <rect fill="none" height="0.001" width="0.001" x="9.9" y="21.816"/>
     </g>
     <g transform="matrix(1, 0, 0, 1, 3.429, 6.4262)">
      <g>
       <g transform="rotate(270)">
        <g>
         <g enable-background="new    ">
          <path d="M-11.647,5.54l-0.891,0L-12.538,5.388l0.342,-0.372c0.049,-0.053,0.093,-0.101,0.131,-0.145s0.071,-0.086,0.099,-0.128c0.026,-0.042,0.047,-0.084,0.062,-0.125c0.015,-0.043,0.021,-0.088,0.021,-0.138c0,-0.038,-0.005,-0.072,-0.017,-0.102s-0.027,-0.054,-0.047,-0.075c-0.021,-0.02,-0.045,-0.035,-0.073,-0.046s-0.06,-0.016,-0.094,-0.016c-0.062,0,-0.118,0.013,-0.167,0.038c-0.051,0.024,-0.098,0.057,-0.143,0.096l-0.1,-0.116c0.025,-0.023,0.055,-0.046,0.084,-0.065c0.029,-0.021,0.063,-0.039,0.097,-0.054s0.071,-0.026,0.109,-0.036c0.038,-0.008,0.079,-0.013,0.121,-0.013c0.063,0,0.119,0.009,0.169,0.026c0.051,0.018,0.094,0.043,0.129,0.076c0.035,0.032,0.063,0.072,0.082,0.119c0.019,0.048,0.028,0.101,0.028,0.16c0,0.056,-0.009,0.108,-0.026,0.158c-0.017,0.05,-0.041,0.1,-0.07,0.148c-0.031,0.048,-0.066,0.097,-0.109,0.146c-0.041,0.049,-0.087,0.1,-0.136,0.152L-12.32,5.37l0,0.008l0.673,0L-11.647,5.54z" fill="#787878"/>
         </g>
        </g>
       </g>
      </g>
     </g>
     <g id="connector1pin">
      <path d="M9.9,7.766c-0.193,0,-0.35,-0.157,-0.35,-0.35l0,-7.2c0,-0.193,0.156,-0.35,0.35,-0.35s0.35,0.157,0.35,0.35l0,7.2C10.249,7.609,10.093,7.766,9.9,7.766z" fill="#787878"/>
     </g>
     <g id="connector1terminal">
      <polygon fill="none" points="9.9,0.216,9.901,0.216,9.901,0.216"/>
     </g>
     <g transform="matrix(1, 0, 0, 1, 3.429, 1.3462)">
      <g>
       <g transform="rotate(270)">
        <g>
         <g enable-background="new    ">
          <path d="M-2.616,5.54l-0.172,0L-2.788,4.648c0,-0.028,0,-0.058,0,-0.09s0.001,-0.063,0.002,-0.095c0.001,-0.032,0.002,-0.063,0.003,-0.092c0.001,-0.028,0.002,-0.054,0.002,-0.076c-0.011,0.012,-0.021,0.021,-0.029,0.03s-0.017,0.017,-0.026,0.024s-0.018,0.016,-0.028,0.025c-0.01,0.008,-0.021,0.019,-0.035,0.03l-0.145,0.118l-0.094,-0.12l0.374,-0.292l0.146,0L-2.618,5.54z" fill="#787878"/>
         </g>
        </g>
       </g>
      </g>
     </g>
     <g>
      <path d="M0.18,13.536l1.08,-2.521l1.44,1.438L0.18,13.536z"/>
     </g>
     <g>
      <path d="M0.54,16.776l1.08,-2.521l1.438,1.438L0.54,16.776z"/>
     </g>
    </g>
   </g>
  </g>
 </g>
 <g partID="60400">
  <g transform="translate(80.6153,66.991)">
   <g transform="matrix(0,1,-1,0,0,0)">
    <g id="schematic">
     <g>
      <path d="M13.5,14.966L9.9,14.966c-0.193,0,-0.35,-0.156,-0.35,-0.35s0.156,-0.35,0.35,-0.35L13.5,14.266c0.193,0,0.35,0.156,0.35,0.35S13.694,14.966,13.5,14.966z"/>
     </g>
     <g>
      <path d="M9.9,14.966L6.3,14.966c-0.193,0,-0.35,-0.156,-0.35,-0.35s0.157,-0.35,0.35,-0.35l3.6,0c0.193,0,0.35,0.156,0.35,0.35S10.093,14.966,9.9,14.966z"/>
     </g>
     <g>
      <polygon fill="#FFFFFF" points="9.9,14.616,6.3,7.416,9.9,7.416,13.5,7.416"/>
      <path d="M9.9,15.398L5.734,7.066l8.333,0L9.9,15.398zM6.866,7.766L9.9,13.834l3.034,-6.068L6.866,7.766z"/>
     </g>
     <g>
      <path d="M9.9,14.841c-0.124,0,-0.225,-0.101,-0.225,-0.225l0,-7.2c0,-0.124,0.101,-0.225,0.225,-0.225s0.225,0.101,0.225,0.225l0,7.2C10.124,14.74,10.024,14.841,9.9,14.841z"/>
     </g>
     <g>
      <path d="M1.8,12.141c-0.058,0,-0.115,-0.021,-0.159,-0.065c-0.088,-0.088,-0.088,-0.23,0,-0.318l2.34,-2.341c0.088,-0.088,0.23,-0.088,0.318,0s0.088,0.23,0,0.318l-2.34,2.341C1.915,12.12,1.858,12.141,1.8,12.141z"/>
     </g>
     <g>
      <path d="M2.16,15.381c-0.058,0,-0.115,-0.021,-0.159,-0.065c-0.088,-0.088,-0.088,-0.23,0,-0.318l2.34,-2.34c0.088,-0.088,0.23,-0.088,0.318,0s0.088,0.23,0,0.318l-2.34,2.34C2.276,15.359,2.218,15.381,2.16,15.381z"/>
     </g>
     <g id="connector0pin">
      <path d="M9.9,22.166c-0.193,0,-0.35,-0.156,-0.35,-0.35l0,-7.2c0,-0.193,0.156,-0.35,0.35,-0.35s0.35,0.156,0.35,0.35l0,7.2C10.249,22.01,10.093,22.166,9.9,22.166z" fill="#787878"/>
     </g>
     <g id="connector0terminal">
      <rect fill="none" height="0.001" width="0.001" x="9.9" y="21.816"/>
     </g>
     <g transform="matrix(1, 0, 0, 1, 3.429, 6.4262)">
      <g>
       <g transform="rotate(270)">
        <g>
         <g enable-background="new    ">
          <path d="M-11.647,5.54l-0.891,0L-12.538,5.388l0.342,-0.372c0.049,-0.053,0.093,-0.101,0.131,-0.145s0.071,-0.086,0.099,-0.128c0.026,-0.042,0.047,-0.084,0.062,-0.125c0.015,-0.043,0.021,-0.088,0.021,-0.138c0,-0.038,-0.005,-0.072,-0.017,-0.102s-0.027,-0.054,-0.047,-0.075c-0.021,-0.02,-0.045,-0.035,-0.073,-0.046s-0.06,-0.016,-0.094,-0.016c-0.062,0,-0.118,0.013,-0.167,0.038c-0.051,0.024,-0.098,0.057,-0.143,0.096l-0.1,-0.116c0.025,-0.023,0.055,-0.046,0.084,-0.065c0.029,-0.021,0.063,-0.039,0.097,-0.054s0.071,-0.026,0.109,-0.036c0.038,-0.008,0.079,-0.013,0.121,-0.013c0.063,0,0.119,0.009,0.169,0.026c0.051,0.018,0.094,0.043,0.129,0.076c0.035,0.032,0.063,0.072,0.082,0.119c0.019,0.048,0.028,0.101,0.028,0.16c0,0.056,-0.009,0.108,-0.026,0.158c-0.017,0.05,-0.041,0.1,-0.07,0.148c-0.031,0.048,-0.066,0.097,-0.109,0.146c-0.041,0.049,-0.087,0.1,-0.136,0.152L-12.32,5.37l0,0.008l0.673,0L-11.647,5.54z" fill="#787878"/>
         </g>
        </g>
       </g>
      </g>
     </g>
     <g id="connector1pin">
      <path d="M9.9,7.766c-0.193,0,-0.35,-0.157,-0.35,-0.35l0,-7.2c0,-0.193,0.156,-0.35,0.35,-0.35s0.35,0.157,0.35,0.35l0,7.2C10.249,7.609,10.093,7.766,9.9,7.766z" fill="#787878"/>
     </g>
     <g id="connector1terminal">
      <polygon fill="none" points="9.9,0.216,9.901,0.216,9.901,0.216"/>
     </g>
     <g transform="matrix(1, 0, 0, 1, 3.429, 1.3462)">
      <g>
       <g transform="rotate(270)">
        <g>
         <g enable-background="new    ">
          <path d="M-2.616,5.54l-0.172,0L-2.788,4.648c0,-0.028,0,-0.058,0,-0.09s0.001,-0.063,0.002,-0.095c0.001,-0.032,0.002,-0.063,0.003,-0.092c0.001,-0.028,0.002,-0.054,0.002,-0.076c-0.011,0.012,-0.021,0.021,-0.029,0.03s-0.017,0.017,-0.026,0.024s-0.018,0.016,-0.028,0.025c-0.01,0.008,-0.021,0.019,-0.035,0.03l-0.145,0.118l-0.094,-0.12l0.374,-0.292l0.146,0L-2.618,5.54z" fill="#787878"/>
         </g>
        </g>
       </g>
      </g>
     </g>
     <g>
      <path d="M0.18,13.536l1.08,-2.521l1.44,1.438L0.18,13.536z"/>
     </g>
     <g>
      <path d="M0.54,16.776l1.08,-2.521l1.438,1.438L0.54,16.776z"/>
     </g>
    </g>
   </g>
  </g>
 </g>
 <g partID="60820">
  <g transform="translate(0.848985,73.7954)">
   <g id="schematic" >
    <line class="other" stroke="#000000" stroke-linecap="round" stroke-width="0.432002" x1="7.55002" x2="8.63003"  y1="3.096" y2="0.216"/>
    <line class="other" stroke="#000000" stroke-linecap="round" stroke-width="0.432002" x1="8.63003" x2="10.43"  y1="0.216" y2="5.976"/>
    <line class="other" stroke="#000000" stroke-linecap="round" stroke-width="0.432002" x1="10.43" x2="12.23"  y1="5.976" y2="0.216"/>
    <line class="other" stroke="#000000" stroke-linecap="round" stroke-width="0.432002" x1="12.23" x2="14.03"  y1="0.216" y2="5.976"/>
    <line class="other" stroke="#000000" stroke-linecap="round" stroke-width="0.432002" x1="14.03" x2="15.8301"  y1="5.976" y2="0.216"/>
    <line class="other" stroke="#000000" stroke-linecap="round" stroke-width="0.432002" x1="15.8301" x2="17.6301"  y1="0.216" y2="5.976"/>
    <line class="other" stroke="#000000" stroke-linecap="round" stroke-width="0.432002" x1="17.6301" x2="19.4301"  y1="5.976" y2="0.216"/>
    <line class="other" stroke="#000000" stroke-linecap="round" stroke-width="0.432002" x1="19.4301" x2="21.2301"  y1="0.216" y2="5.976"/>
    <line class="other" stroke="#000000" stroke-linecap="round" stroke-width="0.432002" x1="21.2301" x2="21.9501"  y1="5.976" y2="3.096"/>
    <line class="pin" connectorname="2" id="connector1pin" stroke="#787878" stroke-linecap="round" stroke-width="0.700001" x1="29.1502" x2="21.9501"  y1="3.096" y2="3.096"/>
    <g class="terminal" fill="none" height="0.000283465" id="connector1terminal" stroke="none" stroke-width="0" width="0.000283466" x="29.1502"  y="3.096"/>
    <text class="text" fill="#8c8c8c" font-family="'Droid Sans'" font-size="2.50001" stroke="none" stroke-width="0" text-anchor="middle" x="25.5501"  y="2.046">2</text>
    <line class="pin" connectorname="1" id="connector0pin" stroke="#787878" stroke-linecap="round" stroke-width="0.700001" x1="0.350001" x2="7.55002"  y1="3.096" y2="3.096"/>
    <g class="terminal" fill="none" height="0.000283465" id="connector0terminal" stroke="none" stroke-width="0" width="0.000283466" x="0.350001"  y="3.096"/>
    <text class="text" fill="#8c8c8c" font-family="'Droid Sans'" font-size="2.50001" stroke="none" stroke-width="0" text-anchor="middle" x="3.95001"  y="2.046">1</text>
   </g>
  </g>
 </g>
 <g partID="60920">
  <g transform="translate(0.848985,80.9954)">
   <g id="schematic" >
    <line class="other" stroke="#000000" stroke-linecap="round" stroke-width="0.432002" x1="7.55002" x2="8.63003"  y1="3.096" y2="0.216"/>
    <line class="other" stroke="#000000" stroke-linecap="round" stroke-width="0.432002" x1="8.63003" x2="10.43"  y1="0.216" y2="5.976"/>
    <line class="other" stroke="#000000" stroke-linecap="round" stroke-width="0.432002" x1="10.43" x2="12.23"  y1="5.976" y2="0.216"/>
    <line class="other" stroke="#000000" stroke-linecap="round" stroke-width="0.432002" x1="12.23" x2="14.03"  y1="0.216" y2="5.976"/>
    <line class="other" stroke="#000000" stroke-linecap="round" stroke-width="0.432002" x1="14.03" x2="15.8301"  y1="5.976" y2="0.216"/>
    <line class="other" stroke="#000000" stroke-linecap="round" stroke-width="0.432002" x1="15.8301" x2="17.6301"  y1="0.216" y2="5.976"/>
    <line class="other" stroke="#000000" stroke-linecap="round" stroke-width="0.432002" x1="17.6301" x2="19.4301"  y1="5.976" y2="0.216"/>
    <line class="other" stroke="#000000" stroke-linecap="round" stroke-width="0.432002" x1="19.4301" x2="21.2301"  y1="0.216" y2="5.976"/>
    <line class="other" stroke="#000000" stroke-linecap="round" stroke-width="0.432002" x1="21.2301" x2="21.9501"  y1="5.976" y2="3.096"/>
    <line class="pin" connectorname="2" id="connector1pin" stroke="#787878" stroke-linecap="round" stroke-width="0.700001" x1="29.1502" x2="21.9501"  y1="3.096" y2="3.096"/>
    <g class="terminal" fill="none" height="0.000283465" id="connector1terminal" stroke="none" stroke-width="0" width="0.000283466" x="29.1502"  y="3.096"/>
    <text class="text" fill="#8c8c8c" font-family="'Droid Sans'" font-size="2.50001" stroke="none" stroke-width="0" text-anchor="middle" x="25.5501"  y="2.046">2</text>
    <line class="pin" connectorname="1" id="connector0pin" stroke="#787878" stroke-linecap="round" stroke-width="0.700001" x1="0.350001" x2="7.55002"  y1="3.096" y2="3.096"/>
    <g class="terminal" fill="none" height="0.000283465" id="connector0terminal" stroke="none" stroke-width="0" width="0.000283466" x="0.350001"  y="3.096"/>
    <text class="text" fill="#8c8c8c" font-family="'Droid Sans'" font-size="2.50001" stroke="none" stroke-width="0" text-anchor="middle" x="3.95001"  y="2.046">1</text>
   </g>
  </g>
 </g>
 <g partID="61010">
  <g transform="translate(0.848985,88.1954)">
   <g id="schematic" >
    <line class="other" stroke="#000000" stroke-linecap="round" stroke-width="0.432002" x1="7.55002" x2="8.63003"  y1="3.096" y2="0.216"/>
    <line class="other" stroke="#000000" stroke-linecap="round" stroke-width="0.432002" x1="8.63003" x2="10.43"  y1="0.216" y2="5.976"/>
    <line class="other" stroke="#000000" stroke-linecap="round" stroke-width="0.432002" x1="10.43" x2="12.23"  y1="5.976" y2="0.216"/>
    <line class="other" stroke="#000000" stroke-linecap="round" stroke-width="0.432002" x1="12.23" x2="14.03"  y1="0.216" y2="5.976"/>
    <line class="other" stroke="#000000" stroke-linecap="round" stroke-width="0.432002" x1="14.03" x2="15.8301"  y1="5.976" y2="0.216"/>
    <line class="other" stroke="#000000" stroke-linecap="round" stroke-width="0.432002" x1="15.8301" x2="17.6301"  y1="0.216" y2="5.976"/>
    <line class="other" stroke="#000000" stroke-linecap="round" stroke-width="0.432002" x1="17.6301" x2="19.4301"  y1="5.976" y2="0.216"/>
    <line class="other" stroke="#000000" stroke-linecap="round" stroke-width="0.432002" x1="19.4301" x2="21.2301"  y1="0.216" y2="5.976"/>
    <line class="other" stroke="#000000" stroke-linecap="round" stroke-width="0.432002" x1="21.2301" x2="21.9501"  y1="5.976" y2="3.096"/>
    <line class="pin" connectorname="2" id="connector1pin" stroke="#787878" stroke-linecap="round" stroke-width="0.700001" x1="29.1502" x2="21.9501"  y1="3.096" y2="3.096"/>
    <g class="terminal" fill="none" height="0.000283465" id="connector1terminal" stroke="none" stroke-width="0" width="0.000283466" x="29.1502"  y="3.096"/>
    <text class="text" fill="#8c8c8c" font-family="'Droid Sans'" font-size="2.50001" stroke="none" stroke-width="0" text-anchor="middle" x="25.5501"  y="2.046">2</text>
    <line class="pin" connectorname="1" id="connector0pin" stroke="#787878" stroke-linecap="round" stroke-width="0.700001" x1="0.350001" x2="7.55002"  y1="3.096" y2="3.096"/>
    <g class="terminal" fill="none" height="0.000283465" id="connector0terminal" stroke="none" stroke-width="0" width="0.000283466" x="0.350001"  y="3.096"/>
    <text class="text" fill="#8c8c8c" font-family="'Droid Sans'" font-size="2.50001" stroke="none" stroke-width="0" text-anchor="middle" x="3.95001"  y="2.046">1</text>
   </g>
  </g>
 </g>
 <g partID="61500">
  <g transform="translate(187.762,5.6)">
   <g id="schematic">
    <polyline fill="none" points="7.55,13.636,11.244,13.636,13.973,16.35,17.41,16.35,21.95,13.284" stroke="#000000" stroke-linecap="round" stroke-linejoin="round" stroke-width="0.7"/>
    <polyline fill="none" points="7.55,20.748,12.16,20.748,20.327,20.748" stroke="#000000" stroke-linecap="round" stroke-linejoin="round" stroke-width="0.7"/>
    <polyline fill="none" id="box_1_" points="21.95,28.8,7.55,28.8,7.55,7.2,21.95,7.2" stroke="#000000" stroke-linecap="round" stroke-linejoin="round" stroke-width="0.9"/>
    <polygon points="10.385,14.817,8.891,16.866,9.91,17.067,8.632,19.555,11.131,16.55,10.068,16.278"/>
    <g fill="none" height="0.625" id="connector2terminal" width="1.275" y="20.438"/>
    <g fill="none" height="0.625" id="connector1terminal" width="1.275" y="20.438"/>
    <g fill="none" height="0.625" id="connector0terminal" width="1.275" y="13.379"/>
    <line fill="none" id="connector2pin" stroke="#787878" stroke-linecap="round" stroke-linejoin="round" stroke-width="0.7" x1="7.55" x2="0.35" y1="20.748" y2="20.748"/>
    <line fill="none" id="connector0pin" stroke="#787878" stroke-linecap="round" stroke-linejoin="round" stroke-width="0.7" x1="7.55" x2="0.35" y1="13.692" y2="13.692"/>
    <line fill="none" id="connector1pin" stroke="#787878" stroke-linecap="round" stroke-linejoin="round" stroke-width="0.7" x1="7.55" x2="0.35" y1="20.748" y2="20.748"/>
    <g transform="matrix(1, 0, 0, 1, 19.3843, 25.585)">
     <text fill="#787878" font-family="'DroidSans'" font-size="4.5">-</text>
    </g>
    <g transform="matrix(1, 0, 0, 1, 18.5503, 12.1563)">
     <text fill="#787878" font-family="'DroidSans'" font-size="4.5">+</text>
    </g>
   </g>
  </g>
 </g>
 <g partID="60530">
  <line stroke="#404040" stroke-linecap="round" stroke-width="0.699998" x1="87.5993" x2="80.3993" y1="76.8915" y2="76.8915"/>
 </g>
 <g partID="60680">
  <line stroke="#404040" stroke-linecap="round" stroke-width="0.699998" x1="65.9993" x2="87.5993" y1="84.0915" y2="84.0915"/>
 </g>
 <g partID="60750">
  <line stroke="#404040" stroke-linecap="round" stroke-width="0.699998" x1="44.3993" x2="87.5993" y1="91.2915" y2="91.2915"/>
 </g>
 <g partID="60850">
  <line stroke="#404040" stroke-linecap="round" stroke-width="0.699998" x1="58.7988" x2="29.9993" y1="76.8915" y2="76.8915"/>
 </g>
 <g partID="60940">
  <line stroke="#404040" stroke-linecap="round" stroke-width="0.699998" x1="44.3988" x2="29.9993" y1="84.0915" y2="84.0915"/>
 </g>
 <g partID="61030">
  <line stroke="#404040" stroke-linecap="round" stroke-width="0.699998" x1="29.9993" x2="22.7988" y1="91.2915" y2="91.2915"/>
 </g>
 <g partID="61600">
  <line stroke="#404040" stroke-linecap="round" stroke-width="0.699998" x1="116.432" x2="188.399" y1="19.36" y2="19.2915"/>
 </g>
 <circle cx="116.432" cy="19.36" fill="black" r="0.72" stroke="none" stroke-width="0"/>
 <g partID="61530">
  <line stroke="#404040" stroke-linecap="round" stroke-width="0.699998" x1="116.399" x2="116.432" y1="26.4916" y2="19.36"/>
 </g>
 <circle cx="116.432" cy="19.36" fill="black" r="0.72" stroke="none" stroke-width="0"/>
 <g partID="69310">
  <line stroke="#404040" stroke-linecap="round" stroke-width="0.699998" x1="188.29" x2="188.399" y1="184.905" y2="26.3505"/>
 </g>
 <circle cx="188.29" cy="184.905" fill="black" r="0.72" stroke="none" stroke-width="0"/>
 <g partID="69240">
  <line stroke="#404040" stroke-linecap="round" stroke-width="0.699998" x1="130.799" x2="188.29" y1="184.892" y2="184.905"/>
 </g>
 <circle cx="188.29" cy="184.905" fill="black" r="0.72" stroke="none" stroke-width="0"/>
 <g partID="71520">
  <line stroke="#404040" stroke-linecap="round" stroke-width="0.699998" x1="1.16942" x2="1.19913" y1="76.8915" y2="76.8915"/>
 </g>
 <circle cx="1.16942" cy="76.8915" fill="black" r="0.72" stroke="none" stroke-width="0"/>
 <g partID="71530">
  <line stroke="#404040" stroke-linecap="round" stroke-width="0.699998" x1="1.19913" x2="1.16942" y1="84.0915" y2="76.8915"/>
 </g>
 <circle cx="1.19913" cy="84.0915" fill="black" r="1.44" stroke="none" stroke-width="0"/>
 <circle cx="1.16942" cy="76.8915" fill="black" r="0.72" stroke="none" stroke-width="0"/>
 <g partID="71880">
  <line stroke="#404040" stroke-linecap="round" stroke-width="0.699998" x1="1.24431" x2="1.23434" y1="184.88" y2="91.3517"/>
 </g>
 <circle cx="1.24431" cy="184.88" fill="black" r="0.72" stroke="none" stroke-width="0"/>
 <circle cx="1.23434" cy="91.3517" fill="black" r="0.72" stroke="none" stroke-width="0"/>
 <g partID="71670">
  <line stroke="#404040" stroke-linecap="round" stroke-width="0.699998" x1="130.799" x2="1.24431" y1="184.892" y2="184.88"/>
 </g>
 <circle cx="130.799" cy="184.892" fill="black" r="0.72" stroke="none" stroke-width="0"/>
 <circle cx="1.24431" cy="184.88" fill="black" r="0.72" stroke="none" stroke-width="0"/>
 <g partID="72170">
  <line stroke="#404040" stroke-linecap="round" stroke-width="0.699998" x1="1.23434" x2="1.19913" y1="91.3517" y2="84.0915"/>
 </g>
 <circle cx="1.23434" cy="91.3517" fill="black" r="0.72" stroke="none" stroke-width="0"/>
 <circle cx="1.19913" cy="84.0915" fill="black" r="1.44" stroke="none" stroke-width="0"/>
 <g partID="72180">
  <line stroke="#404040" stroke-linecap="round" stroke-width="0.699998" x1="1.19913" x2="1.23434" y1="91.2915" y2="91.3517"/>
 </g>
 <circle cx="1.23434" cy="91.3517" fill="black" r="1.44" stroke="none" stroke-width="0"/>
 <g id="partLabel" partID="58460">
  <g transform="translate(173.999,20.8916)">
   <g fill="#000000" fill-opacity="1" font-family="'DroidSans'" font-size="5.000" font-style="normal" font-weight="normal" id="schematicLabel" stroke="none">
    <text x="0" y="5.000">?</text>
   </g>
  </g>
 </g>
 <g id="partLabel" partID="60450">
  <g transform="translate(38.1658,92.1662)">
   <g fill="#000000" fill-opacity="1" font-family="'DroidSans'" font-size="5.000" font-style="normal" font-weight="normal" id="schematicLabel" stroke="none">
    <text x="0" y="5.000">GREEN</text>
   </g>
  </g>
 </g>
 <g id="partLabel" partID="60430">
  <g transform="translate(59.5384,84.9662)">
   <g fill="#000000" fill-opacity="1" font-family="'DroidSans'" font-size="5.000" font-style="normal" font-weight="normal" id="schematicLabel" stroke="none">
    <text x="0" y="5.000">YELLOW</text>
   </g>
  </g>
 </g>
 <g id="partLabel" partID="60400">
  <g transform="translate(72.1193,66.3963)">
   <g fill="#000000" fill-opacity="1" font-family="'DroidSans'" font-size="5.000" font-style="normal" font-weight="normal" id="schematicLabel" stroke="none">
    <text x="0" y="5.000">RED</text>
   </g>
  </g>
 </g>
 <g id="partLabel" partID="61010">
  <g transform="translate(24.4367,90.6392)">
   <g fill="#000000" fill-opacity="1" font-family="'DroidSans'" font-size="5.000" font-style="normal" font-weight="normal" id="schematicLabel" stroke="none">
    <text x="0" y="5.000">R3</text>
   </g>
  </g>
 </g>
 <g id="partLabel" partID="60920">
  <g transform="translate(24.2093,79.346)">
   <g fill="#000000" fill-opacity="1" font-family="'DroidSans'" font-size="5.000" font-style="normal" font-weight="normal" id="schematicLabel" stroke="none">
    <text x="0" y="5.000">R2</text>
   </g>
  </g>
 </g>
 <g id="partLabel" partID="60820">
  <g transform="translate(23.9818,70.7817)">
   <g fill="#000000" fill-opacity="1" font-family="'DroidSans'" font-size="5.000" font-style="normal" font-weight="normal" id="schematicLabel" stroke="none">
    <text x="0" y="5.000">R1</text>
   </g>
  </g>
 </g>
 <g id="partLabel" partID="61500">
  <g transform="translate(216.562,0)">
   <g fill="#000000" fill-opacity="1" font-family="'DroidSans'" font-size="5.000" font-style="normal" font-weight="normal" id="schematicLabel" stroke="none">
    <text x="0" y="5.000">Power</text>
   </g>
  </g>
 </g>
</svg>
